<?xml version="1.0" standalone="no"?><!DOCTYPE svg PUBLIC "-//W3C//DTD SVG 1.1//EN" "http://www.w3.org/Graphics/SVG/1.1/DTD/svg11.dtd"><svg t="1590299065133" class="icon" viewBox="0 0 1024 1024" version="1.1" xmlns="http://www.w3.org/2000/svg" p-id="8773" xmlns:xlink="http://www.w3.org/1999/xlink" width="140" height="140"><defs><style type="text/css"></style></defs><path d="M197.445818 106.589091h173.940364a104.354909 104.354909 0 0 1 104.354909 104.354909v173.428364A104.354909 104.354909 0 0 1 371.386182 488.727273H197.445818A104.354909 104.354909 0 0 1 93.090909 384.372364V210.944a104.354909 104.354909 0 0 1 104.354909-104.308364z m0 93.090909A11.264 11.264 0 0 0 186.181818 210.990545v173.428364c0 6.190545 5.026909 11.264 11.264 11.264h173.940364a11.264 11.264 0 0 0 11.264-11.264V210.944a11.264 11.264 0 0 0-11.264-11.217455H197.445818z m0 341.410909h173.940364a104.354909 104.354909 0 0 1 104.354909 104.354909v173.381818a104.354909 104.354909 0 0 1-104.354909 104.354909H197.445818A104.354909 104.354909 0 0 1 93.090909 818.827636v-173.381818a104.354909 104.354909 0 0 1 104.354909-104.354909z m0 93.090909a11.264 11.264 0 0 0-11.264 11.264v173.381818c0 6.237091 5.026909 11.264 11.264 11.264h173.940364a11.264 11.264 0 0 0 11.264-11.264v-173.381818a11.264 11.264 0 0 0-11.264-11.264H197.445818zM666.018909 121.483636a104.354909 104.354909 0 0 1 147.456 0l102.4 102.213819c40.820364 40.727273 40.866909 106.775273 0.186182 147.54909l-0.139636 0.186182-102.446546 102.260364a104.354909 104.354909 0 0 1-147.456 0l-102.4-102.260364a104.354909 104.354909 0 0 1-0.186182-147.549091l102.586182-102.4z m-36.677818 184.040728l102.446545 102.260363a11.264 11.264 0 0 0 15.918546 0l102.4-102.260363a11.264 11.264 0 0 0 0-15.918546l-102.4-102.260363a11.264 11.264 0 0 0-15.918546 0l-102.4 102.260363a11.264 11.264 0 0 0 0 15.918546z m23.738182 235.706181h173.893818a104.354909 104.354909 0 0 1 104.354909 104.35491v173.381818a104.354909 104.354909 0 0 1-104.354909 104.354909H653.032727a104.354909 104.354909 0 0 1-104.354909-104.354909V645.585455a104.354909 104.354909 0 0 1 104.354909-104.35491z m0 93.09091a11.264 11.264 0 0 0-11.310546 11.264v173.381818c0 6.190545 5.073455 11.264 11.264 11.264h173.940364a11.264 11.264 0 0 0 11.264-11.264V645.585455a11.264 11.264 0 0 0-11.264-11.264H653.032727z" p-id="8774"></path></svg>