<?xml version="1.0" standalone="no"?><!DOCTYPE svg PUBLIC "-//W3C//DTD SVG 1.1//EN" "http://www.w3.org/Graphics/SVG/1.1/DTD/svg11.dtd"><svg t="1590299095833" class="icon" viewBox="0 0 1024 1024" version="1.1" xmlns="http://www.w3.org/2000/svg" p-id="11189" xmlns:xlink="http://www.w3.org/1999/xlink" width="140" height="140"><defs><style type="text/css"></style></defs><path d="M887.893547 870.208l67.413333 67.413333c16.64 16.64 16.746667 43.52-0.042667 60.309334a42.666667 42.666667 0 0 1-60.288 0.042666l-67.413333-67.413333a192 192 0 1 1 60.330667-60.330667zM592.960213 2.24c6.677333 2.133333 12.970667 5.909333 18.24 11.306667l250.389334 255.786666c3.904 3.989333 6.954667 8.533333 9.109333 13.397334 2.496 3.456 3.968 7.68 3.968 12.245333v237.802667h-85.333333v-173.653334h-141.781334a128 128 0 0 1-128.106666-128.128V85.333333H128.000213v853.333334h432.426667v85.333333H106.60288A63.850667 63.850667 0 0 1 42.66688 959.936V64.064A64 64 0 0 1 106.60288 0h476.757333c3.477333 0 6.72 0.810667 9.6 2.24z m11.818667 127.018667v101.738666a42.666667 42.666667 0 0 0 42.773333 42.773334h98.218667l-141.013333-144.512zM725.333547 874.666667a106.666667 106.666667 0 1 0 0-213.333334 106.666667 106.666667 0 0 0 0 213.333334zM170.66688 469.333333a42.666667 42.666667 0 0 1 42.602667-42.666666h469.461333c23.530667 0 42.602667 18.944 42.602667 42.666666a42.666667 42.666667 0 0 1-42.602667 42.666667H213.269547A42.538667 42.538667 0 0 1 170.66688 469.333333z m0 170.666667c0-23.573333 19.136-42.666667 42.794667-42.666667h213.077333c23.637333 0 42.794667 18.944 42.794667 42.666667 0 23.573333-19.136 42.666667-42.794667 42.666667H213.461547A42.624 42.624 0 0 1 170.66688 640z m0 170.666667c0-23.573333 19.136-42.666667 42.794667-42.666667h213.077333c23.637333 0 42.794667 18.944 42.794667 42.666667 0 23.573333-19.136 42.666667-42.794667 42.666666H213.461547A42.624 42.624 0 0 1 170.66688 810.666667z" p-id="11190"></path></svg>