<svg xmlns="http://www.w3.org/2000/svg" viewBox="0 0 113.39 93.5"><defs><style>.cls-1{fill:#00eaff;}</style></defs><title>资源 2</title><g id="图层_2" data-name="图层 2"><g id="图层_1-2" data-name="图层 1"><path class="cls-1" d="M53.68,22.07h0a13.3,13.3,0,0,1,7.94-.13c2.07.48,3.5-.89,3.07-2.37-.64-2.18-4.39-2.12-7.6-.73a12.41,12.41,0,0,0-3.81,2.66.38.38,0,0,0-.11.25.36.36,0,0,0,.36.35A.4.4,0,0,0,53.68,22.07Z"/><path class="cls-1" d="M82.44,86.16a.55.55,0,0,0-.22,0c-4.71,1.11-10.84,1.8-17-1.1A20.47,20.47,0,0,1,54.18,63.46c1.86-10.68,9.74-18,11-28.76,1-8.66-4.71-13-11.35-11.84a8.6,8.6,0,0,0-2.41.68l-.12.05-.06,0-.07,0a1.14,1.14,0,0,0-.23.15,1.56,1.56,0,0,0-.2.16,1.89,1.89,0,0,0-.25.31l0,0a2.11,2.11,0,0,0-.16.34,1,1,0,0,0-.07.21.24.24,0,0,0,0,.08.45.45,0,0,0,0,.11c-.07.46,0,.78,0,1.08s-.47.47-.66.6a18,18,0,0,0-5.25,5,.31.31,0,0,0-.07.21.34.34,0,0,0,.35.35.41.41,0,0,0,.19-.05h0c7.51-5.37,13.81-3.62,12.83,2.21-1,6.15-11.21,20.28-13.38,27.16a25,25,0,0,0,.86,18A23.75,23.75,0,0,0,60.73,92.8c10.73,2.58,18.31-2.58,22-5.46a.63.63,0,0,0,.29-.48A.64.64,0,0,0,82.44,86.16Z"/><path class="cls-1" d="M89.82,26.3a5,5,0,0,1-4.68-3.88A29.28,29.28,0,0,0,67.85,2.23a1.45,1.45,0,0,0-.22-.09c-.53-.22-1.06-.42-1.6-.6l-.07,0C65,1.2,64.08,1,63.11.73l-.89-.2c-.36-.07-.73-.12-1.1-.18S60.29.23,59.88.19,59.26.12,58.94.1C58.26,0,57.56,0,56.86,0h-.34c-.7,0-1.39,0-2.08.09l-.93.09c-.42,0-.83.1-1.24.16L51.16.53l-.88.2c-1,.22-1.92.47-2.85.78l-.07,0c-.55.18-1.08.38-1.61.6l-.22.09A29.22,29.22,0,0,0,28.24,22.48a5,5,0,0,1-4.68,3.82A25.79,25.79,0,0,0,0,52,25,25,0,0,0,4.22,66.12a26.63,26.63,0,0,0,10.7,9.07l.34.13a20.23,20.23,0,0,0,7.14,1.3h0a21.25,21.25,0,0,0,8.82-1.94,19.3,19.3,0,0,0,3.51-2.07,14.72,14.72,0,0,0,2.62-2.45,9.78,9.78,0,0,0,1.24-1.91h0a10.25,10.25,0,1,0-18.67-8.4v0h0a.59.59,0,0,0,0,.23.65.65,0,0,0,.66.64.7.7,0,0,0,.37-.11h0a13.82,13.82,0,0,1,3.91-1.77,8.88,8.88,0,0,1,2.28-.32,6.29,6.29,0,0,1,1.53.18,5.14,5.14,0,0,1,1.34.53,4.11,4.11,0,0,1,1.8,2.14,3.52,3.52,0,0,1,.15,1.78,4.92,4.92,0,0,1-.72,1.86,7,7,0,0,1-.54.71l0,.06h0l-.16.17h0l-.22.21v0l-.16.14h0l-.05,0h0l-.15.13,0,0-.05,0,0,0-.07,0,0,0,0,0,0,0,0,0-.06,0,0,0-.05,0,0,0-.05,0,0,0-.08,0,0,0-.07,0,0,0-.07,0h0l-.09,0,0,0-.06,0h0l-.09,0a10.79,10.79,0,0,1-4.35,1.2c-.43,0-.85,0-1.25,0H21.68c-.44-.05-.86-.11-1.28-.19A12.57,12.57,0,0,1,18,67.6c-.47-.2-1.3-.66-1.3-.66a17.51,17.51,0,0,1,8-32.42A11.78,11.78,0,0,0,36.3,24.71a20.82,20.82,0,0,1,6-10.62v0A20.92,20.92,0,0,1,52.61,8.76h0c.65-.13,1.3-.22,2-.29h0c.67-.06,1.35-.1,2-.1s1.37,0,2,.1h.05c.66.07,1.32.16,2,.29h0a20.83,20.83,0,0,1,10.29,5.37v0A20.9,20.9,0,0,1,77.15,25l.06.32h0a11.79,11.79,0,0,0,10.7,9.18h0l.75,0a17.52,17.52,0,0,1,15.86,21.92c0,.14-.08.28-.13.43s-.1.35-.16.53-.12.36-.19.54a4.68,4.68,0,0,1-.18.48c-.05.14-.1.27-.16.4a17.59,17.59,0,0,1-7,8.12h0a13.34,13.34,0,0,1-1.31.66,12.8,12.8,0,0,1-2.42.75c-.42.08-.85.14-1.29.19H90.36c-.41,0-.83,0-1.25,0a10.79,10.79,0,0,1-4.35-1.2l-.09,0h0l-.07,0,0,0-.09,0h0l-.07,0,0,0-.06,0,0,0-.08,0,0,0-.06,0,0,0-.06,0,0,0-.06,0,0,0-.05,0,0,0-.05,0-.06,0,0,0,0,0,0,0-.15-.13h0l-.05,0h0l-.15-.14,0,0L83,66h0l-.15-.17h0l-.05-.06a7,7,0,0,1-.54-.71,5,5,0,0,1-.73-1.86,3.52,3.52,0,0,1,.15-1.78,4.11,4.11,0,0,1,1.8-2.14,5.21,5.21,0,0,1,1.35-.53,6.23,6.23,0,0,1,1.53-.18,8.81,8.81,0,0,1,2.27.32,13.73,13.73,0,0,1,3.79,1.69.65.65,0,0,0,.39.12.67.67,0,0,0,.67-.66.58.58,0,0,0,0-.26v0a12.73,12.73,0,0,0-1.26-2.23,18,18,0,0,0-15-8.1,16.7,16.7,0,0,0-2.36.17A16.61,16.61,0,1,0,86,79.49h0a.67.67,0,0,0-.33-1.26h0c-16.18.42-19.72-9.66-17.71-16.52a13.16,13.16,0,0,1,6-7.11l.29-.15.19-.09a12.15,12.15,0,0,1,7.79-.88A10.23,10.23,0,0,0,74.8,68.25h0A10.31,10.31,0,0,0,76,70.16a14.39,14.39,0,0,0,2.62,2.45,19.56,19.56,0,0,0,3.5,2.07A21.33,21.33,0,0,0,91,76.62h0a20.22,20.22,0,0,0,7.13-1.3l.35-.13A24.2,24.2,0,0,0,109.38,66a25.25,25.25,0,0,0,3.41-8.45c.06-.29.12-.59.17-.88,0-.12.05-.23.06-.35a25.14,25.14,0,0,0,.37-4.28A25.8,25.8,0,0,0,89.82,26.3Z"/></g></g></svg>